<?xml version="1.0" encoding="UTF-8"?>
<svg version="1.1" xmlns="http://www.w3.org/2000/svg" width="659" height="379">
<path d="M0 0 C8.29898611 6.17598966 10.67898464 14.97480173 13.4375 24.5625 C13.82532179 25.86438041 14.2146361 27.16581717 14.60546875 28.46679688 C16.3438664 34.29854954 18.01857512 40.14808847 19.6875 46 C19.6968457 44.84999512 19.70619141 43.69999023 19.71582031 42.51513672 C19.75581384 38.23203368 19.82159835 33.94964187 19.89501953 29.66699219 C19.92317498 27.81649947 19.94441646 25.96588771 19.95849609 24.11523438 C19.9800012 21.4486012 20.0266886 18.78339116 20.078125 16.1171875 C20.07935364 15.29507782 20.08058228 14.47296814 20.08184814 13.62594604 C20.21629113 8.30542313 21.17733309 5.23348898 24.6875 1 C28.68603453 -1.74750789 33.00494203 -1.55286015 37.6875 -1 C40.5625 0.3125 40.5625 0.3125 42.6875 2 C43.265 2.45375 43.8425 2.9075 44.4375 3.375 C47.12273495 6.86580543 46.81946789 11.51133386 46.84863281 15.74902344 C46.85824036 16.88080017 46.8678479 18.0125769 46.87774658 19.1786499 C46.88199646 20.39328918 46.88624634 21.60792847 46.890625 22.859375 C46.89632507 24.11832581 46.90202515 25.37727661 46.90789795 26.67437744 C46.91733793 29.33731698 46.92423988 32.00014412 46.92773438 34.66308594 C46.93320568 38.05326603 46.95721654 41.4430418 46.98570633 44.83309555 C47.00896288 48.09182408 47.01079099 51.35057516 47.015625 54.609375 C47.0279718 55.81591736 47.0403186 57.02245972 47.05303955 58.26556396 C47.01385775 73.20645315 47.01385775 73.20645315 42.27081299 78.61566162 C37.46632131 82.81637385 33.37084367 83.29003899 27.2578125 83.21875 C22.62298074 82.82429623 19.32510278 81.20411969 15.5625 78.4375 C9.8033563 70.95061319 7.27420276 62.0608344 4.875 53.0625 C4.56369141 51.94037109 4.25238281 50.81824219 3.93164062 49.66210938 C1.6875 41.45003434 1.6875 41.45003434 1.6875 38 C1.0275 38 0.3675 38 -0.3125 38 C-0.29678955 39.05912598 -0.2810791 40.11825195 -0.26489258 41.20947266 C-0.21039878 45.15666026 -0.17607954 49.10381489 -0.14770508 53.05126953 C-0.13266262 54.75640463 -0.11222347 56.46150132 -0.08618164 58.16650391 C-0.04959716 60.62412012 -0.03272827 63.08122269 -0.01953125 65.5390625 C-0.00404739 66.29555084 0.01143646 67.05203918 0.02738953 67.83145142 C0.02889385 72.61338758 -0.66693757 75.85881399 -3.3125 80 C-7.66655311 82.96867258 -11.10561364 83.47335331 -16.3125 83 C-19.25 82 -19.25 82 -21.3125 81 C-21.3125 80.34 -21.3125 79.68 -21.3125 79 C-21.9725 79 -22.6325 79 -23.3125 79 C-26.22045292 73.95954828 -26.44330114 68.71193344 -26.38183594 62.99804688 C-26.37142273 61.83664185 -26.36100952 60.67523682 -26.35028076 59.4786377 C-26.33265686 58.23787476 -26.31503296 56.99711182 -26.296875 55.71875 C-26.28037903 54.43190308 -26.26388306 53.14505615 -26.24688721 51.81921387 C-26.2105428 49.10254359 -26.16934249 46.38599237 -26.12548828 43.66943359 C-26.07045421 40.19964203 -26.03392943 36.72991879 -26.00185776 33.25984955 C-25.96719873 29.93343569 -25.91190458 26.60742908 -25.859375 23.28125 C-25.84984802 22.04048706 -25.84032104 20.79972412 -25.83050537 19.5213623 C-25.61627735 8.71399899 -25.61627735 8.71399899 -22.3125 4 C-15.92034237 -1.91274581 -8.20818018 -2.47794119 0 0 Z " fill="#010B7F" transform="translate(132.3125,96)"/>
<path d="M0 0 C2.76294344 2.60506096 3.96842701 4.66504495 4.55859375 8.4296875 C4.676801 12.8937497 4.73064445 16.06985647 1.8125 19.625 C-2.58691814 23.71017398 -5.82007817 23.3246808 -11.65234375 23.296875 C-15.31745833 23.02504944 -18.17799102 22.05064608 -21.57421875 20.734375 C-25.96009527 19.41784662 -31.64249171 18.97749585 -35.8125 21.0625 C-35.8125 21.7225 -35.8125 22.3825 -35.8125 23.0625 C-34.13626654 23.58753333 -32.459978 24.11239131 -30.78344727 24.63647461 C-29.3315453 25.09121011 -27.88021849 25.5477857 -26.42944336 26.00610352 C-23.02074429 27.07928863 -19.61567053 28.11719832 -16.171875 29.07421875 C-8.11337906 31.33709024 -0.34225628 34.09930253 4.6875 41.1875 C7.76402162 47.08416643 8.11726617 53.17761715 6.57421875 59.625 C4.35288003 66.04437534 1.00013931 70.4818382 -4.8125 74.0625 C-11.80907729 77.43386661 -18.24274402 77.60453622 -25.9375 77.5625 C-27.13930908 77.55677979 -28.34111816 77.55105957 -29.5793457 77.54516602 C-41.44317812 77.30649107 -51.63562321 75.43017272 -60.390625 66.75 C-63.21431566 63.39880669 -63.73277509 60.93947401 -64.125 56.625 C-63.66287016 51.35671986 -62.17734 48.29418488 -58.25 44.75 C-54.08494483 41.86650027 -50.79391783 41.64114774 -45.8125 42.0625 C-43.07211085 42.68080691 -40.45845994 43.56202787 -37.8125 44.5 C-28.4469494 47.90506867 -28.4469494 47.90506867 -18.8125 47.0625 C-18.4825 46.0725 -18.1525 45.0825 -17.8125 44.0625 C-22.87230836 42.50354305 -27.93442851 41.00752272 -33.06640625 39.703125 C-53.91931541 34.31519041 -53.91931541 34.31519041 -59.875 24.75 C-61.76843325 17.30249587 -61.68821257 10.87840831 -57.8125 4.0625 C-45.31701684 -11.2890936 -15.26551559 -10.51624408 0 0 Z " fill="#4A90F0" transform="translate(168.8125,216.9375)"/>
<path d="M0 0 C3.43611719 2.84706853 5.00735818 5.50512402 5.61987305 9.95043945 C5.64605713 11.09730225 5.67224121 12.24416504 5.69921875 13.42578125 C5.75239258 15.2965332 5.75239258 15.2965332 5.80664062 17.20507812 C5.82919922 18.49865234 5.85175781 19.79222656 5.875 21.125 C5.92624023 23.09436523 5.92624023 23.09436523 5.97851562 25.10351562 C6.06089272 28.33975851 6.13008016 31.57573385 6.1875 34.8125 C6.63480469 34.40257812 7.08210938 33.99265625 7.54296875 33.5703125 C13.96043301 27.85069616 18.54666701 26.336885 27.17578125 26.49609375 C32.83876069 27.09103712 36.5794128 29.2044128 40.5625 33.1875 C43.71920846 38.28679828 44.80633921 42.8303876 44.1875 48.8125 C42.71107901 53.13801446 41.16789879 56.0994827 37.4375 58.8125 C36.32375 59.3075 36.32375 59.3075 35.1875 59.8125 C36.8271875 60.67875 36.8271875 60.67875 38.5 61.5625 C41.5760178 63.18756601 43.36542203 64.82601718 45.1875 67.8125 C46.50684817 73.17843953 46.98724712 78.91294254 44.1875 83.8125 C39.94836413 87.03424326 36.51967827 88.5312144 31.1640625 88.1796875 C26.38537857 87.2919478 23.43738064 85.49126126 20.59375 81.671875 C18.46181596 78.21292079 16.59397853 74.70775026 14.9140625 71.0078125 C14.50929688 70.11835938 14.10453125 69.22890625 13.6875 68.3125 C13.3471875 67.4978125 13.006875 66.683125 12.65625 65.84375 C10.62213972 63.03061876 8.47639466 62.64375909 5.1875 61.8125 C5.23390625 63.12605469 5.2803125 64.43960938 5.328125 65.79296875 C5.36565266 67.52862304 5.40205175 69.26430199 5.4375 71 C5.47101563 71.86431641 5.50453125 72.72863281 5.5390625 73.61914062 C5.60402705 77.85807727 5.59087009 80.16257938 3.30859375 83.83984375 C0.28462647 86.65218901 -1.85519898 87.87706375 -6.0625 87.73828125 C-12.15139442 87.14305279 -12.15139442 87.14305279 -14.8125 85.8125 C-14.8125 85.1525 -14.8125 84.4925 -14.8125 83.8125 C-15.4725 83.8125 -16.1325 83.8125 -16.8125 83.8125 C-18.76613114 79.70539934 -19.07494436 76.36597114 -19.10302734 71.83837891 C-19.10974457 71.15638931 -19.11646179 70.47439972 -19.12338257 69.77174377 C-19.14230918 67.52744163 -19.14628397 65.28343938 -19.1484375 63.0390625 C-19.15486904 61.47113932 -19.16159766 59.90321733 -19.16860962 58.33529663 C-19.18056894 55.05195332 -19.18429182 51.76871511 -19.18310547 48.48535156 C-19.18290233 44.2899917 -19.2102048 40.09530959 -19.24464989 35.90011024 C-19.2669501 32.66233255 -19.27094207 29.42471719 -19.26988602 26.18687057 C-19.27223726 24.64078816 -19.28103391 23.09470095 -19.29655075 21.54869461 C-19.43292194 6.55847885 -19.43292194 6.55847885 -14.8125 0.8125 C-10.6718556 -2.58874361 -4.66837872 -1.97109324 0 0 Z M8.1875 51.8125 C8.1875 52.4725 8.1875 53.1325 8.1875 53.8125 C12.07914348 55.10971449 15.08179226 54.94283993 19.1875 54.8125 C19.8475 54.4825 20.5075 54.1525 21.1875 53.8125 C21.1875 53.1525 21.1875 52.4925 21.1875 51.8125 C16.71495503 50.32165168 12.66004497 50.32165168 8.1875 51.8125 Z " fill="#010B7F" transform="translate(323.8125,91.1875)"/>
<path d="M0 0 C2.66690981 2.1386813 4.03027133 3.72362648 5.1171875 6.984375 C5.26789547 9.12098758 5.3657841 11.26149624 5.43359375 13.40234375 C5.47548828 14.65595703 5.51738281 15.90957031 5.56054688 17.20117188 C5.59986328 18.51150391 5.63917969 19.82183594 5.6796875 21.171875 C5.72289742 22.50717478 5.7665125 23.84246152 5.81054688 25.17773438 C5.91675252 28.44650797 6.01879747 31.71535833 6.1171875 34.984375 C6.72046875 34.19619385 7.32375 33.4080127 7.9453125 32.59594727 C11.42789742 28.40831115 14.61962115 27.15194543 19.9921875 26.55078125 C21.36708234 26.53372626 22.74226036 26.53266053 24.1171875 26.546875 C25.14585937 26.5169043 25.14585937 26.5169043 26.1953125 26.48632812 C32.4447655 26.49229134 35.74029102 29.00362793 40.3671875 32.859375 C43.83762837 37.07348177 44.53533773 41.72164718 44.36328125 47.03515625 C43.75891421 51.82212697 41.50474185 54.84213055 37.9296875 57.859375 C37.0015625 58.560625 36.0734375 59.261875 35.1171875 59.984375 C36.0453125 60.4175 36.9734375 60.850625 37.9296875 61.296875 C41.60948326 63.24500217 43.3372282 64.54760787 45.3046875 68.171875 C46.88161543 73.6304717 46.95964362 77.41566361 44.3046875 82.359375 C41.87769718 85.27176338 40.26493903 86.79223289 36.48046875 87.42578125 C31.31989904 87.6306182 27.09504375 87.70359755 22.8671875 84.484375 C18.6994525 80.2993465 16.3611913 74.96540004 14.08105469 69.58398438 C12.38581576 65.75649542 11.57608496 64.26524236 7.875 62 C6.96492188 61.66484375 6.05484375 61.3296875 5.1171875 60.984375 C5.16939453 62.95470703 5.16939453 62.95470703 5.22265625 64.96484375 C5.25080216 66.70050801 5.27810146 68.43618615 5.3046875 70.171875 C5.32982422 71.03619141 5.35496094 71.90050781 5.38085938 72.79101562 C5.43699621 77.67492044 5.38289207 81.06400704 2.1171875 84.984375 C-2.34400693 87.95850462 -6.65328795 87.73038421 -11.8828125 86.984375 C-15.55550206 85.13737445 -17.56512728 82.93743066 -18.8828125 78.984375 C-18.99271589 76.7372638 -19.04186051 74.48703026 -19.05981445 72.23730469 C-19.06638565 71.55560715 -19.07295685 70.87390961 -19.07972717 70.17155457 C-19.09943 67.91645186 -19.11111689 65.66141571 -19.12109375 63.40625 C-19.12516928 62.63442635 -19.1292448 61.86260269 -19.13344383 61.06739044 C-19.15429321 56.98096485 -19.16859896 52.89457272 -19.17797852 48.80810547 C-19.18903173 44.59703447 -19.22342178 40.38649351 -19.26315022 36.17560959 C-19.28935521 32.92927093 -19.29767383 29.68305774 -19.30125999 26.43662262 C-19.30611712 24.88494544 -19.31770619 23.33327353 -19.33629799 21.78170013 C-19.50603582 6.67553115 -19.50603582 6.67553115 -14.8828125 0.984375 C-10.69952971 -2.00014098 -4.55622394 -2.45771416 0 0 Z M7.1171875 52.984375 C9.76177129 54.30666689 11.79480051 54.08114694 14.7421875 54.046875 C15.74507812 54.03785156 16.74796875 54.02882813 17.78125 54.01953125 C18.55210937 54.00792969 19.32296875 53.99632812 20.1171875 53.984375 C20.1171875 52.994375 20.1171875 52.004375 20.1171875 50.984375 C18.32584772 50.93045507 16.53404851 50.89161929 14.7421875 50.859375 C13.74445312 50.83617187 12.74671875 50.81296875 11.71875 50.7890625 C8.95456577 50.71220652 8.95456577 50.71220652 7.1171875 52.984375 Z " fill="#4B91F0" transform="translate(503.8828125,207.015625)"/>
<path d="M0 0 C3.55908869 1.68247829 5.42946501 2.79134052 7.12109375 6.375 C8.40760055 11.68112584 8.47115337 16.93267556 8.625 22.375 C8.66367187 23.49261719 8.70234375 24.61023438 8.7421875 25.76171875 C8.83606555 28.50765161 8.92174911 31.25358476 9 34 C9.94875 33.195625 10.8975 32.39125 11.875 31.5625 C16.82987729 27.36162578 21.06721629 27.53833755 27.5 27.59765625 C31.68113764 28.07830042 33.6704416 29.05899466 36.66796875 31.90625 C40.64234024 38.15335593 41.46697255 44.13703933 41.46875 51.35546875 C41.48017029 52.65246452 41.48017029 52.65246452 41.49182129 53.97566223 C41.50255865 55.78997934 41.50550151 57.60435793 41.50097656 59.41870117 C41.49999877 62.19098036 41.54180312 64.96053744 41.5859375 67.73242188 C41.5911414 69.50259843 41.59383274 71.27278454 41.59375 73.04296875 C41.6183429 74.27904121 41.6183429 74.27904121 41.64343262 75.54008484 C41.59082085 79.91975806 41.41902599 81.49246428 38.52539062 84.99731445 C37.27532227 85.9886438 37.27532227 85.9886438 36 87 C35.67 87.33 35.34 87.66 35 88 C32.48828125 88.34375 32.48828125 88.34375 29.3125 88.5 C27.75982422 88.60828125 27.75982422 88.60828125 26.17578125 88.71875 C22.22316606 87.82418518 20.61736135 86.57579896 18.1628418 83.40234375 C15.72044719 78.35654007 16.19755732 72.74482781 16.25 67.25 C16.24235917 64.81767015 16.22710092 62.38534868 16.203125 59.953125 C16.20989258 58.88223633 16.21666016 57.81134766 16.22363281 56.70800781 C16.20175037 53.77792493 16.20175037 53.77792493 14 51 C11.525 51.495 11.525 51.495 9 52 C8.98541748 52.78648926 8.97083496 53.57297852 8.95581055 54.38330078 C8.88110637 57.96434958 8.78451793 61.54448911 8.6875 65.125 C8.66494141 66.3625 8.64238281 67.6 8.61914062 68.875 C8.58369141 70.07382812 8.54824219 71.27265625 8.51171875 72.5078125 C8.48553467 73.60754395 8.45935059 74.70727539 8.43237305 75.84033203 C7.82713749 80.26323357 6.32010326 83.67989674 3.15234375 86.84765625 C-0.97683536 89.05837828 -5.46178009 88.60599376 -10 88 C-14.19217089 85.69002829 -15.56100756 83.46417235 -17 79 C-17.26069641 75.82632446 -17.26069641 75.82632446 -17.2746582 72.20947266 C-17.27976913 71.5469902 -17.28488007 70.88450775 -17.29014587 70.20195007 C-17.30399007 68.02256104 -17.30308888 65.84349015 -17.30078125 63.6640625 C-17.30467142 62.14097986 -17.30900675 60.61789829 -17.31376648 59.09481812 C-17.32121785 55.90562419 -17.32094559 52.71654099 -17.31567383 49.52734375 C-17.30988475 45.45315474 -17.32680152 41.37942116 -17.3500185 37.30530739 C-17.36479712 34.16018044 -17.36562188 31.01516208 -17.36250877 27.87000656 C-17.36302005 26.36859613 -17.36822128 24.86717931 -17.37832069 23.36580276 C-17.39074674 21.26001213 -17.38385746 19.15509452 -17.37231445 17.04931641 C-17.37294388 15.85416412 -17.3735733 14.65901184 -17.3742218 13.42764282 C-16.84367075 8.56811965 -15.58675218 4.44674464 -11.875 1.0625 C-7.8192045 -0.43638095 -4.27012824 -0.669087 0 0 Z " fill="#4B90F0" transform="translate(256,206)"/>
<path d="M0 0 C0.83402344 0.03222656 1.66804688 0.06445312 2.52734375 0.09765625 C6.29991047 1.34742797 8.06636678 3.65082716 10.0625 6.9375 C11.93954644 10.90699165 13.53920032 14.96932309 15.125 19.0625 C15.960529 21.21465892 16.80525693 23.36327435 17.66015625 25.5078125 C18.02633057 26.45414551 18.39250488 27.40047852 18.76977539 28.37548828 C20.16759426 31.14578313 21.76550468 32.87544877 24.0625 34.9375 C25.0525 34.6075 26.0425 34.2775 27.0625 33.9375 C26.83690959 29.53848708 25.60135461 27.15318391 23 23.75 C19.91991252 19.32750151 19.16756763 15.89229614 19.46875 10.53125 C20.42854103 6.33847867 22.6040619 3.4599388 26.0625 0.9375 C30.93700216 -0.71652269 36.06285991 -0.88053458 40.8125 1.0625 C44.22235993 3.90404995 46.80070835 6.52723919 47.29980469 11.12231445 C47.2924636 17.20746682 46.50927504 22.67730551 45 28.5625 C44.67044312 29.8913623 44.67044312 29.8913623 44.33422852 31.24707031 C42.51990483 38.42941881 40.53991255 45.56629055 38.5 52.6875 C38.21954834 53.67443848 37.93909668 54.66137695 37.65014648 55.67822266 C33.05577028 71.3393542 33.05577028 71.3393542 27.6875 77.3125 C27.14351563 77.93898438 26.59953125 78.56546875 26.0390625 79.2109375 C20.93675892 83.66789043 16.19548864 84.46709757 9.6875 84.375 C8.93235107 84.36597656 8.17720215 84.35695313 7.39916992 84.34765625 C0.62797551 84.13649177 -3.79204419 83.02032506 -8.703125 78.20703125 C-12.12681698 74.1993918 -13.91548938 70.47221922 -14.171875 65.1796875 C-13.64576374 60.14655649 -11.50615853 56.32688327 -7.75 53 C-3.86848283 51.53364907 -0.05879858 51.19788706 4.0625 50.9375 C3.30710937 50.24140625 2.55171875 49.5453125 1.7734375 48.828125 C-4.74929075 41.87305453 -8.16727558 31.65283786 -11.875 22.9375 C-12.18163574 22.23206055 -12.48827148 21.52662109 -12.80419922 20.79980469 C-14.4955563 16.71211497 -15.45149221 13.43981148 -14.9375 8.9375 C-10.66773256 1.53656977 -10.66773256 1.53656977 -7.12109375 0.30859375 C-4.66513755 -0.108787 -2.48770519 -0.1494923 0 0 Z M7.0625 52.9375 C8.4546875 54.7628125 8.4546875 54.7628125 9.875 56.625 C11.70189262 59.03376005 13.2427644 61.27029581 14.6875 63.9375 C15.14125 64.5975 15.595 65.2575 16.0625 65.9375 C17.3825 65.9375 18.7025 65.9375 20.0625 65.9375 C20.25407797 61.05226189 19.93654046 58.62260114 18.0625 53.9375 C14.4325 53.6075 10.8025 53.2775 7.0625 52.9375 Z " fill="#4A90F0" transform="translate(374.9375,233.0625)"/>
<path d="M0 0 C0.7955127 -0.01015137 1.59102539 -0.02030273 2.41064453 -0.03076172 C10.17984867 0.08379975 17.34742795 2.26777089 23.3125 7.4375 C28.99631951 16.63914294 29.55030065 24.48182821 29.60766602 35.08154297 C29.61919494 36.56536386 29.63966158 38.04914299 29.66918945 39.53271484 C29.7120095 41.68615652 29.72805154 43.8383722 29.73828125 45.9921875 C29.75286377 47.27593262 29.76744629 48.55967773 29.7824707 49.88232422 C29.2311385 54.05297333 27.92800985 56.18437829 25.3125 59.4375 C21.51808193 61.93097473 17.82020769 61.64224894 13.46484375 61.0625 C10.17877774 60.10828845 8.47439863 57.9924711 6.3125 55.4375 C5.6525 55.4375 4.9925 55.4375 4.3125 55.4375 C3.44625 56.365625 3.44625 56.365625 2.5625 57.3125 C-1.97096656 61.59410731 -7.18231477 61.83641075 -13.16015625 61.68359375 C-18.76988268 61.13736073 -22.43759524 59.60588923 -26.5625 55.75 C-29.78751278 50.7227742 -30.84125525 46.70538999 -30.4375 40.75 C-29.08664709 34.78373298 -27.82605387 31.9855491 -22.6875 28.4375 C-21.37611096 27.72864106 -20.04972983 27.04293548 -18.6875 26.4375 C-19.47125 26.025 -20.255 25.6125 -21.0625 25.1875 C-23.87337969 23.31358021 -24.47144938 22.48588028 -25.6875 19.4375 C-26.50105691 14.72743367 -26.17975201 11.33713299 -23.875 7.125 C-17.36935735 0.69104487 -8.67392166 0.07899134 0 0 Z M-9.6875 25.4375 C-9.6875 25.7675 -9.6875 26.0975 -9.6875 26.4375 C-2.2625 27.4275 -2.2625 27.4275 5.3125 28.4375 C4.9825 27.4475 4.6525 26.4575 4.3125 25.4375 C-0.01813912 23.27218044 -5.10381971 24.56441804 -9.6875 25.4375 Z M-8.6875 34.4375 C-8.3575 35.4275 -8.0275 36.4175 -7.6875 37.4375 C-4.3875 37.4375 -1.0875 37.4375 2.3125 37.4375 C2.6425 36.4475 2.9725 35.4575 3.3125 34.4375 C1.87609829 34.24176392 0.43830496 34.05622184 -1 33.875 C-1.80050781 33.77058594 -2.60101563 33.66617188 -3.42578125 33.55859375 C-5.85567116 33.28994822 -5.85567116 33.28994822 -8.6875 34.4375 Z " fill="#010B7F" transform="translate(211.6875,117.5625)"/>
<path d="M0 0 C6.27316905 5.43674651 8.7745695 10.85999178 10 19 C10.32768532 23.8985211 10.37005962 28.77923328 10.375 33.6875 C10.39949219 34.97978516 10.42398438 36.27207031 10.44921875 37.60351562 C10.48526244 49.23961924 10.48526244 49.23961924 6 54 C3.34177238 56.65822762 1.8939746 56.35980571 -1.8125 56.4375 C-6.2174721 56.37940085 -7.5634669 56.32525996 -11.1875 53.625 C-13 51 -13 51 -14 49 C-14.5775 49.78375 -15.155 50.5675 -15.75 51.375 C-18.94008885 55.09677033 -20.72350889 55.88233844 -25.64453125 56.3359375 C-39.62713918 56.64019798 -39.62713918 56.64019798 -45 52 C-49.56472726 46.23402873 -50.77705118 41.31840929 -50 34 C-47.95750624 28.41001707 -44.861072 25.54652541 -39.6875 22.75 C-39.130625 22.5025 -38.57375 22.255 -38 22 C-38.969375 21.21625 -39.93875 20.4325 -40.9375 19.625 C-43.56155083 17.50342699 -44.84409828 16.25834958 -45.2734375 12.79296875 C-45.54564989 5.80967403 -45.54564989 5.80967403 -43.0625 2.125 C-31.56736757 -5.85121434 -11.92359645 -9.04861761 0 0 Z M-25 20 C-25.33 20.66 -25.66 21.32 -26 22 C-20.06 22.99 -20.06 22.99 -14 24 C-14.66 22.68 -15.32 21.36 -16 20 C-18.97 20 -21.94 20 -25 20 Z M-27 29 C-27 30.32 -27 31.64 -27 33 C-25.54257537 33.08096803 -24.08387193 33.13917774 -22.625 33.1875 C-21.40683594 33.23970703 -21.40683594 33.23970703 -20.1640625 33.29296875 C-19.44992187 33.19628906 -18.73578125 33.09960938 -18 33 C-17.34 32.01 -16.68 31.02 -16 30 C-17.03406673 28.74050951 -17.03406673 28.74050951 -19.28515625 28.90234375 C-20.20167969 28.91394531 -21.11820312 28.92554688 -22.0625 28.9375 C-22.98160156 28.94652344 -23.90070313 28.95554687 -24.84765625 28.96484375 C-25.55792969 28.97644531 -26.26820313 28.98804688 -27 29 Z " fill="#4A90F0" transform="translate(349,238)"/>
<path d="M0 0 C8.62272389 8.62272389 8.70623658 19.84274626 8.8425293 31.32299805 C8.86415216 32.6894654 8.89830759 34.05579265 8.94506836 35.42163086 C9.37776595 48.22239634 9.37776595 48.22239634 5.78515625 52.82421875 C2.84286447 55.53606651 0.49905252 56.38653872 -3.5625 56.3125 C-6.99287798 56.13330115 -8.91218625 55.9264396 -11.671875 53.8515625 C-13.16035617 52.11500113 -14.41375366 50.41253757 -15.5625 48.4375 C-16.14 49.22125 -16.7175 50.005 -17.3125 50.8125 C-20.5210382 54.55579456 -22.28331195 55.33293792 -27.2421875 55.73828125 C-28.64055488 55.75282004 -30.03907176 55.75641481 -31.4375 55.75 C-32.13230469 55.76611328 -32.82710938 55.78222656 -33.54296875 55.79882812 C-38.29945623 55.80330693 -41.48922956 54.8572014 -45.5625 52.4375 C-45.5625 51.7775 -45.5625 51.1175 -45.5625 50.4375 C-46.2225 50.4375 -46.8825 50.4375 -47.5625 50.4375 C-51.33597991 43.85398186 -51.49753824 37.87370038 -50.5625 30.4375 C-48.4847921 25.58063581 -44.29114685 23.41693356 -39.5625 21.4375 C-40.531875 20.674375 -41.50125 19.91125 -42.5 19.125 C-44.98336332 17.17001185 -45.5146672 16.58099841 -46.5625 13.4375 C-46.82443374 9.37752696 -46.94955576 6.50190333 -45.5625 2.6875 C-34.95546462 -9.2454148 -12.25327393 -7.4715085 0 0 Z M-26.5625 19.4375 C-26.5625 20.0975 -26.5625 20.7575 -26.5625 21.4375 C-22.9325 22.0975 -19.3025 22.7575 -15.5625 23.4375 C-16.2225 22.1175 -16.8825 20.7975 -17.5625 19.4375 C-20.5325 19.4375 -23.5025 19.4375 -26.5625 19.4375 Z M-28.5625 28.4375 C-28.8925 29.4275 -29.2225 30.4175 -29.5625 31.4375 C-27.31737738 32.56006131 -26.04793351 32.57163762 -23.5625 32.5625 C-22.86125 32.56507813 -22.16 32.56765625 -21.4375 32.5703125 C-19.47096225 32.55127236 -19.47096225 32.55127236 -17.5625 31.4375 C-17.8925 30.4475 -18.2225 29.4575 -18.5625 28.4375 C-21.8625 28.4375 -25.1625 28.4375 -28.5625 28.4375 Z " fill="#4A90F0" transform="translate(473.5625,238.5625)"/>
<path d="M0 0 C7.94417886 8.29041425 7.80788571 18.58350582 7.74682617 29.42675781 C7.73824683 31.7554374 7.76726349 34.08171365 7.79882812 36.41015625 C7.80043889 37.90234302 7.799865 39.3945341 7.796875 40.88671875 C7.81372597 41.92122162 7.81372597 41.92122162 7.83091736 42.97662354 C7.76227567 47.74211768 6.66186364 50.14637563 3.30078125 53.49609375 C-0.6339573 55.46346302 -5.41007925 54.96095713 -9.69921875 54.49609375 C-12.76171875 52.62109375 -12.76171875 52.62109375 -14.69921875 50.49609375 C-15.35921875 49.83609375 -16.01921875 49.17609375 -16.69921875 48.49609375 C-17.50359375 49.48609375 -18.30796875 50.47609375 -19.13671875 51.49609375 C-23.21177734 55.03451911 -27.0909151 55.10339877 -32.26171875 55.12109375 C-32.99382568 55.13140625 -33.72593262 55.14171875 -34.48022461 55.15234375 C-39.62292108 55.02216362 -42.60448559 53.81466107 -46.69921875 50.49609375 C-51.48206992 45.19617759 -52.00694009 41.16111853 -51.90625 34.22265625 C-51.62966034 30.58002256 -50.90967235 28.41959689 -48.69921875 25.49609375 C-46.43250927 23.86951982 -44.22582631 22.73642837 -41.69921875 21.49609375 C-41.03921875 21.16609375 -40.37921875 20.83609375 -39.69921875 20.49609375 C-40.64796875 19.91859375 -41.59671875 19.34109375 -42.57421875 18.74609375 C-46.81032986 15.69609375 -46.81032986 15.69609375 -47.69921875 12.49609375 C-48.25588371 7.56563265 -48.31872251 5.53526134 -45.76171875 1.24609375 C-41.24891877 -3.43243053 -34.61261149 -5.95617343 -28.1953125 -6.47265625 C-7.60452747 -6.73044386 -7.60452747 -6.73044386 0 0 Z M-27.69921875 18.49609375 C-27.69921875 19.15609375 -27.69921875 19.81609375 -27.69921875 20.49609375 C-24.06921875 21.15609375 -20.43921875 21.81609375 -16.69921875 22.49609375 C-16.69921875 21.50609375 -16.69921875 20.51609375 -16.69921875 19.49609375 C-19.10467513 18.29336556 -20.64918828 18.39537903 -23.32421875 18.43359375 C-24.14148438 18.44261719 -24.95875 18.45164062 -25.80078125 18.4609375 C-26.42726562 18.47253906 -27.05375 18.48414063 -27.69921875 18.49609375 Z M-29.69921875 27.49609375 C-29.36921875 28.81609375 -29.03921875 30.13609375 -28.69921875 31.49609375 C-27.24179412 31.57706178 -25.78309068 31.63527149 -24.32421875 31.68359375 C-23.10605469 31.73580078 -23.10605469 31.73580078 -21.86328125 31.7890625 C-21.14914063 31.69238281 -20.435 31.59570312 -19.69921875 31.49609375 C-19.03921875 30.50609375 -18.37921875 29.51609375 -17.69921875 28.49609375 C-20.22397337 27.23371644 -22.01122341 27.39752971 -24.82421875 27.43359375 C-25.73429687 27.44261719 -26.644375 27.45164062 -27.58203125 27.4609375 C-28.63003906 27.47833984 -28.63003906 27.47833984 -29.69921875 27.49609375 Z " fill="#4A90F0" transform="translate(228.69921875,239.50390625)"/>
<path d="M0 0 C2.79692375 1.36179808 3.91712745 2.57936433 6 5 C7.13873076 8.41619228 7.19243927 11.18383404 7.28125 14.78515625 C7.30886414 15.77049599 7.30886414 15.77049599 7.33703613 16.77574158 C7.41558969 19.58250934 7.48352365 22.38951021 7.55224609 25.1965332 C7.60396516 27.24702824 7.66120548 29.29731778 7.71875 31.34765625 C7.74904297 32.57492432 7.77933594 33.80219238 7.81054688 35.06665039 C7.80492521 37.93371412 7.80492521 37.93371412 9 40 C10.65 40 12.3 40 14 40 C15.4332235 37.133553 15.16465344 34.61857517 15.2109375 31.41796875 C15.23901501 30.08006608 15.26767953 28.74217562 15.296875 27.40429688 C15.33805918 25.29777485 15.37495011 23.19147864 15.40136719 21.0847168 C15.42909313 19.04948932 15.47496876 17.01529417 15.5234375 14.98046875 C15.54325684 13.76254639 15.56307617 12.54462402 15.58349609 11.28979492 C16.12171819 7.03859749 17.82775167 4.58496297 20.3203125 1.21484375 C24.09245708 -1.51338175 29.59315472 -0.54713869 34 0 C37.67930728 2.09215512 38.6704934 3.01148019 40 7 C40.10106984 8.49217469 40.14829525 9.98834814 40.16113281 11.48388672 C40.17074036 12.38847626 40.1803479 13.2930658 40.19024658 14.22506714 C40.19449646 15.20009186 40.19874634 16.17511658 40.203125 17.1796875 C40.20882507 18.18460236 40.21452515 19.18951721 40.22039795 20.22488403 C40.22984577 22.35157214 40.23638107 24.47827487 40.24023438 26.60498047 C40.24994148 29.85540333 40.28096785 33.10519426 40.3125 36.35546875 C40.31903006 38.42187125 40.32428052 40.48827826 40.328125 42.5546875 C40.3404718 43.52566376 40.3528186 44.49664001 40.36553955 45.49703979 C40.34915401 50.47038154 40.30781933 53.99731928 37 58 C33.05581962 61.17725642 29.989034 61.52516147 25 61 C20.27938809 59.27516103 18.19789943 57.51790439 16 53 C15.29875 53.94875 14.5975 54.8975 13.875 55.875 C10.36483631 60.05564439 6.92663338 60.82485151 1.5625 61.3125 C-3.86827697 60.83611606 -7.58463496 59.19019333 -11.75 55.6875 C-17.37971942 48.96311292 -18.15327419 42.52478797 -18.203125 34.03125 C-18.20882507 33.27332153 -18.21452515 32.51539307 -18.22039795 31.73449707 C-18.22981064 30.13762798 -18.23636703 28.5407398 -18.24023438 26.94384766 C-18.24996885 24.5077944 -18.28103788 22.07257541 -18.3125 19.63671875 C-18.31902833 18.08073414 -18.32427947 16.52474355 -18.328125 14.96875 C-18.3404718 14.24465942 -18.3528186 13.52056885 -18.36553955 12.77453613 C-18.34604192 8.32933726 -17.75745075 5.51829393 -15 2 C-10.32679686 -1.11546876 -5.46789154 -0.72135772 0 0 Z " fill="#010B7F" transform="translate(262,118)"/>
<path d="M0 0 C3.5272243 2.10132511 5.70710385 4.62099515 8 8 C8.40992188 7.50628906 8.81984375 7.01257813 9.2421875 6.50390625 C9.78101563 5.86324219 10.31984375 5.22257812 10.875 4.5625 C11.40867187 3.92441406 11.94234375 3.28632812 12.4921875 2.62890625 C14.54284639 0.41355713 15.6232367 0.03394765 18.64453125 -0.23828125 C27.21591005 -0.43909037 27.21591005 -0.43909037 31.125 1.75 C34.86737574 6.24085089 35.44344297 9.7768151 35.31640625 15.52734375 C34.71110572 20.25765527 32.26538328 22.87923195 28.8125 25.9375 C24.69813275 27.49181651 21.21238029 27.14259863 17 26 C13.9375 24.0625 13.9375 24.0625 12 22 C12 21.34 12 20.68 12 20 C10.68 20.33 9.36 20.66 8 21 C8.01047363 21.81678223 8.02094727 22.63356445 8.03173828 23.47509766 C8.07342671 27.19170022 8.09936727 30.90825346 8.125 34.625 C8.14175781 35.91019531 8.15851563 37.19539063 8.17578125 38.51953125 C8.18222656 39.76347656 8.18867188 41.00742188 8.1953125 42.2890625 C8.20578613 43.43068848 8.21625977 44.57231445 8.22705078 45.74853516 C7.83419187 51.3744437 6.30225757 56.23552462 2 60 C-2.37565683 61.14018807 -6.45809452 61.33519684 -10.875 60.375 C-13.78657329 58.49104081 -15.15135223 56.98682459 -17 54 C-17.60645144 50.48244652 -17.58437484 47.00420406 -17.56640625 43.44140625 C-17.57260483 42.41949692 -17.57880341 41.39758759 -17.58518982 40.3447113 C-17.59228241 38.1870926 -17.58912382 36.02941911 -17.57641602 33.87182617 C-17.56256069 30.57693342 -17.59661883 27.28488695 -17.63476562 23.99023438 C-17.63571697 21.89062431 -17.6338572 19.7910107 -17.62890625 17.69140625 C-17.64216446 16.70999161 -17.65542267 15.72857697 -17.66908264 14.71742249 C-17.60776733 10.19509189 -17.49591927 6.99614181 -14.58569336 3.39428711 C-10.09155214 -0.76717479 -5.94093593 -0.68405098 0 0 Z " fill="#010B7F" transform="translate(389,118)"/>
<path d="M0 0 C3.81936008 1.90968004 4.6790009 3.09643642 6.09838867 7.09179688 C7.2439493 11.38143736 7.30584671 15.55032654 7.30078125 19.96875 C7.30506638 20.8078894 7.3093515 21.64702881 7.31376648 22.51159668 C7.31948037 24.27643943 7.32003187 26.04130572 7.31567383 27.80615234 C7.3125091 30.49227307 7.33602572 33.17729594 7.36132812 35.86328125 C7.3636011 37.58593612 7.36430462 39.30859393 7.36328125 41.03125 C7.372491 41.82623901 7.38170074 42.62122803 7.39118958 43.44030762 C7.34251495 49.36121965 6.3001539 54.12480763 2.5 58.875 C-1.04519688 61.53389766 -4.75922123 61.28751042 -9 61 C-13.08096694 59.66583773 -14.57587269 58.77702186 -16.64697266 54.98266602 C-18.44305797 50.4751785 -18.43217495 46.13847867 -18.3984375 41.33984375 C-18.40130768 40.43174454 -18.40417786 39.52364532 -18.40713501 38.58802795 C-18.40916722 36.67773816 -18.40369663 34.76742716 -18.39111328 32.85717773 C-18.37502882 29.9427216 -18.39100025 27.02964816 -18.41015625 24.11523438 C-18.40817403 22.25260113 -18.4043308 20.38996873 -18.3984375 18.52734375 C-18.40451019 17.66157211 -18.41058289 16.79580048 -18.4168396 15.90379333 C-18.34856075 9.99883633 -17.17180566 6.03924284 -13.6796875 1.15234375 C-9.83989757 -1.48193074 -4.42041992 -0.52567156 0 0 Z " fill="#010B7F" transform="translate(443,118)"/>
<path d="M0 0 C3.85852527 3.29109509 4.99871965 5.67597688 5.5625 10.75 C5.40569187 15.3497051 3.36916284 18.56833716 0.125 21.8125 C-2.12026468 21.99176852 -4.37302739 22.08061465 -6.625 22.125 C-7.85734375 22.16238281 -9.0896875 22.19976562 -10.359375 22.23828125 C-14.43767893 21.74435333 -16.0019849 20.6801947 -18.875 17.8125 C-20.73856079 14.08537842 -20.44049975 9.8704268 -19.875 5.8125 C-15.91409072 -1.8493361 -7.52341184 -3.10749619 0 0 Z " fill="#010B7F" transform="translate(444.875,95.1875)"/>
<path d="M0 0 C0.99 0 1.98 0 3 0 C3 2.64 3 5.28 3 8 C2.01 8.33 1.02 8.66 0 9 C-0.598125 9.639375 -1.19625 10.27875 -1.8125 10.9375 C-6.55196294 15.40613649 -11.85340719 15.19771726 -18.0234375 15.0703125 C-18.67570313 15.04710937 -19.32796875 15.02390625 -20 15 C-20 14.34 -20 13.68 -20 13 C-19.20335937 12.97421875 -18.40671875 12.9484375 -17.5859375 12.921875 C-8.98345461 12.59491037 -8.98345461 12.59491037 -2 8 C-0.9458879 5.29754593 -0.48183235 2.89099409 0 0 Z " fill="#081283" transform="translate(216,164)"/>
<path d="M0 0 C-1.29299694 2.88437779 -2.65941363 4.87219421 -5 7 C-5.66 6.67 -6.32 6.34 -7 6 C-5.52522876 2.59668175 -4.14385429 0 0 0 Z " fill="#4688E9" transform="translate(247,207)"/>
</svg>
